<?xml version="1.0" encoding="utf-8"?>
<!-- Generator: Adobe Illustrator 26.0.1, SVG Export Plug-In . SVG Version: 6.00 Build 0)  -->
<svg version="1.1" id="Layer_1" xmlns="http://www.w3.org/2000/svg" xmlns:xlink="http://www.w3.org/1999/xlink" x="0px" y="0px"
	 viewBox="0 0 180 180" style="enable-background:new 0 0 180 180;" xml:space="preserve">
<style type="text/css">
	.st0{fill-rule:evenodd;clip-rule:evenodd;fill:#F0F1F1;}
	.st1{fill-rule:evenodd;clip-rule:evenodd;fill:#FFFFFF;}
	.st2{fill:#FFFFFF;}
	.st3{fill-rule:evenodd;clip-rule:evenodd;fill:#FF6B35;}
	.st4{fill-rule:evenodd;clip-rule:evenodd;fill:#6C6B68;}
</style>
<g>
	<path class="st0" d="M148.4,180H31.6C14.2,180,0,165.8,0,148.4L0,31.6C0,14.2,14.2,0,31.6,0l116.8,0C165.8,0,180,14.2,180,31.6
		v116.8C180,165.8,165.8,180,148.4,180z"/>
	<g>
		<g>
			<path class="st1" d="M115.8,53.6c9.6-6.5,26.4-11.8,30-7.9c3.6,3.9-2.2,20.7-9.2,30C129.1,85.7,105.4,60.6,115.8,53.6z"/>
		</g>
		<g>
			<path class="st2" d="M111.8,58.7c0-2.7,1.1-4.9,3.2-6.3l0,0c9.4-6.4,27.4-12.5,31.9-7.7c4.6,4.9-2.2,22.8-9.1,31.9
				c-1.9,2.5-4.8,3.4-8.3,2.6c-7.3-1.7-16.2-11.1-17.5-18.6C111.8,60,111.8,59.3,111.8,58.7z M116.6,54.8c-1.7,1.1-2.3,2.9-1.8,5.3
				c1.2,6.4,9,14.7,15.3,16.2c2.4,0.6,4.1,0.1,5.3-1.5c7.4-9.8,11.9-25.3,9.3-28.1C142.3,44,127,47.8,116.6,54.8L116.6,54.8z"/>
		</g>
		<path id="XMLID_1_" class="st3" d="M130.5,107.2c4.8-0.7,9.4,1.4,11.8,5c0.2,0,0.4-0.1,0.6-0.1c5.4-0.7,10.3,2.7,11,7.6
			c1,6.9-5.6,11.7-12.3,10.2c-3.2,6.3-11.4,7.9-15.4,2.1c-4.8,0.5-12.5,0.8-14.6-6.4c-1.4-4.8,3.1-9.6,8.5-10.3c0.2,0,0.4,0,0.6-0.1
			C121.9,111.1,125.7,107.8,130.5,107.2z"/>
		<path id="XMLID_20_" class="st3" d="M59.4,115.2c0.2,0,0.4,0,0.6,0.1c5.4,0.7,9.9,5.5,8.5,10.3c-2.1,7.2-9.8,6.9-14.6,6.4
			c-4,5.7-12.3,4.2-15.4-2.1c-6.7,1.6-13.3-3.3-12.3-10.2c0.7-5,5.6-8.4,11-7.6c0.2,0,0.4,0.1,0.6,0.1c2.4-3.6,6.9-5.7,11.8-5
			C54.3,107.8,58.1,111.1,59.4,115.2z"/>
		<path class="st2" d="M155.9,119.5c-0.8-5.7-6.3-9.6-12.3-8.9c-2.9-3.6-7.7-5.5-12.6-4.9c-0.5,0.1-1.1,0.2-1.6,0.3
			c6.4-6.5,10.1-14.6,9.9-23.3c-0.4-20.8-22.8-37.4-50-36.9C76.3,46.1,64,50.2,54.9,57.4C45.7,64.6,40.7,74,40.7,84
			c0,0.2,0,0.4,0,0.5c0.1,7.8,3.4,15.2,9.2,21.4c-0.3-0.1-0.6-0.1-1-0.2c-4.9-0.7-9.7,1.2-12.6,4.9c-6-0.7-11.6,3.3-12.3,8.9
			c-0.4,3.5,0.7,6.8,3.3,9.1c2.6,2.4,6.2,3.4,9.7,2.9c2,3.2,5.2,5.2,8.7,5.5c3.2,0.2,6.1-1,8.1-3.5c4.2,0.4,13,0.7,15.3-7.6
			c0.1-0.4,0.2-0.8,0.3-1.2c0.2-1.9-0.3-3.9-1.4-5.7c-0.5-0.7-1-1.4-1.6-2.1c7.3,3,15.6,4.6,24.2,4.4c8.5-0.2,16.4-1.9,23.3-5
			c-0.8,0.8-1.5,1.7-2.1,2.6c-1.2,1.8-1.6,3.8-1.4,5.7c0,0.4,0.1,0.8,0.3,1.2c2.4,8.3,11.2,7.9,15.3,7.6c2,2.4,4.9,3.7,8.1,3.5
			c3.5-0.3,6.8-2.3,8.7-5.5c3.6,0.5,7.2-0.5,9.7-2.9C155.2,126.3,156.3,123,155.9,119.5z M66.5,125.2c-1.6,5.7-7.5,5.9-13.1,5.4
			l-0.8-0.1l-0.5,0.7c-1.4,2.1-3.6,3.1-6,2.9c-2.9-0.2-5.5-2.1-6.9-4.9l-0.5-1l-1.1,0.3c-3,0.7-6.1,0-8.2-2
			c-1.8-1.7-2.7-3.9-2.4-6.4c0-0.1,0-0.1,0-0.2c0.6-4.2,4.8-7,9.3-6.4c0.2,0,0.3,0.1,0.5,0.1l0.9,0.2l0.5-0.8
			c2.2-3.2,6.2-4.9,10.4-4.4c4.1,0.6,7.6,3.3,8.8,7l0.3,0.9l1,0.1c0.2,0,0.3,0,0.5,0.1c2.7,0.4,5.1,1.9,6.5,4
			C66.3,121.7,67,123.3,66.5,125.2z M150.7,126.5c-2.1,1.9-5.2,2.7-8.2,2l-1.1-0.3l-0.5,1c-1.4,2.8-4,4.7-6.9,4.9
			c-2.4,0.2-4.6-0.9-6-2.9l-0.5-0.7l-0.8,0.1c-5.5,0.5-11.4,0.3-13.1-5.4c-0.5-1.9,0.1-3.5,0.8-4.5c1.4-2.1,3.8-3.6,6.5-4
			c0.2,0,0.3,0,0.5-0.1l1-0.1l0.3-0.9c1.2-3.7,4.7-6.4,8.8-7c4.1-0.6,8.2,1.1,10.4,4.4l0.5,0.8l0.9-0.2c0.2,0,0.3-0.1,0.5-0.1
			c4.6-0.6,8.8,2.2,9.3,6.4c0,0.1,0,0.1,0,0.2C153.4,122.6,152.5,124.8,150.7,126.5z"/>
		<path class="st3" d="M63,52.7c-9.8-6.1-26.8-10.8-30.3-6.8c-3.5,4,3,20.6,10.3,29.6C50.9,85.2,73.6,59.3,63,52.7z"/>
		<path class="st3" d="M146.9,44.7c-4.6-4.8-22.5,1.3-31.9,7.7c-0.5,0.3-0.9,0.7-1.3,1.1c-7.1-3.1-15.4-4.9-24.3-4.8
			c-12.4,0.2-24,4.1-32.7,11c-8.6,6.7-13.2,15.6-13,24.7c0.2,9.2,5.1,17.8,13.9,24.3c8.9,6.5,20.7,10,33.1,9.8
			c25.3-0.5,45.7-16.2,45.7-35.2c0-0.2,0-0.3,0-0.5c0-1.5-0.2-3-0.5-4.4c0.7-0.5,1.4-1,1.9-1.8C144.7,67.5,151.5,49.6,146.9,44.7z
			 M73.1,96.7c-5.5,0-10-5.4-10-12.1c0-6.7,4.5-12.1,10-12.1c5.5,0,10,5.4,10,12.1C83,91.3,78.6,96.7,73.1,96.7z M90,108.3
			c-4.9,0-10.7-7.3,0-7.6C100.7,101,94.9,108.3,90,108.3z M106.9,96.7c-5.5,0-10-5.4-10-12.1c0-6.7,4.5-12.1,10-12.1
			c5.5,0,10,5.4,10,12.1C116.9,91.3,112.4,96.7,106.9,96.7z M135.5,74.8c-1.2,1.6-2.9,2.1-5.3,1.5c-6.3-1.5-14.2-9.8-15.3-16.2
			c-0.4-2.4,0.2-4.2,1.8-5.3c10.4-7,25.6-10.8,28.2-8.1C147.4,49.5,142.8,65.1,135.5,74.8z"/>
		<path class="st4" d="M73.1,82.4c-0.9,0-1.7,2.7-1.7,6c0,3.3,0.8,6,1.7,6c0.9,0,1.7-2.7,1.7-6C74.8,85.1,74,82.4,73.1,82.4z"/>
		<path class="st4" d="M106.9,82.4c-0.9,0-1.7,2.7-1.7,6c0,3.3,0.8,6,1.7,6c0.9,0,1.7-2.7,1.7-6C108.6,85.1,107.9,82.4,106.9,82.4z"
			/>
		<path class="st2" d="M30.2,49.5c0-1.9,0.4-3.5,1.3-4.6c4.4-5,22.5,0.5,32.2,6.5l0,0c2.7,1.7,3.9,4.6,3.4,8.1
			c-1.1,7.5-9.6,17.2-16.8,19.2c-3.4,1-6.4,0.1-8.4-2.3C36.1,69.4,30.2,56.9,30.2,49.5z M62.2,53.9c-10.6-6.6-26-9.9-28.4-7.1
			c-2.5,2.9,2.6,18.3,10.3,27.8c1.3,1.5,3,2,5.4,1.3c6.2-1.7,13.8-10.3,14.7-16.8C64.5,56.7,63.9,55,62.2,53.9L62.2,53.9z"/>
		<g>
			<g id="XMLID_50_">
				<path id="XMLID_77_" class="st4" d="M57.3,101.4c-17.1-3-33.5-1.4-48.7,7.7C19.1,94.4,42.2,92.3,57.3,101.4z"/>
				<path id="XMLID_76_" class="st4" d="M56.8,98c-14.4-6.2-28.2-7.4-43.3-3.6C25.4,84,45.9,86.3,56.8,98z"/>
				<path id="XMLID_51_" class="st4" d="M59.8,105.1c-16,1.5-28.9,5.8-40.5,17.4C21.1,108.5,45,100.4,59.8,105.1z"/>
			</g>
			<g id="XMLID_49_">
				<path id="XMLID_96_" class="st4" d="M122.7,101.4c17.1-3,33.5-1.4,48.7,7.7C160.9,94.4,137.8,92.3,122.7,101.4z"/>
				<path id="XMLID_95_" class="st4" d="M123.2,98c14.4-6.2,28.2-7.4,43.3-3.6C154.6,84,134.1,86.3,123.2,98z"/>
				<path id="XMLID_94_" class="st4" d="M120.2,105.1c16,1.5,28.9,5.8,40.5,17.4C158.9,108.5,135,100.4,120.2,105.1z"/>
			</g>
		</g>
	</g>
</g>
</svg>
