<?xml version="1.0" encoding="utf-8"?>
<!-- Generator: Adobe Illustrator 26.0.1, SVG Export Plug-In . SVG Version: 6.00 Build 0)  -->
<svg version="1.1" id="Layer_1" xmlns="http://www.w3.org/2000/svg" xmlns:xlink="http://www.w3.org/1999/xlink" x="0px" y="0px"
	 viewBox="0 0 32 32" style="enable-background:new 0 0 32 32;" xml:space="preserve">
<style type="text/css">
	.st0{fill-rule:evenodd;clip-rule:evenodd;fill:#F0F1F1;}
	.st1{fill-rule:evenodd;clip-rule:evenodd;fill:#FFFFFF;}
	.st2{fill:#FFFFFF;}
	.st3{fill-rule:evenodd;clip-rule:evenodd;fill:#FF6B35;}
	.st4{fill-rule:evenodd;clip-rule:evenodd;fill:#6C6B68;}
</style>
<g>
	<path class="st0" d="M16,32L16,32C7.2,32,0,24.8,0,16v0C0,7.2,7.2,0,16,0h0c8.8,0,16,7.2,16,16v0C32,24.8,24.8,32,16,32z"/>
	<g>
		<g>
			<path class="st1" d="M20.6,9.5c1.7-1.2,4.7-2.1,5.3-1.4c0.6,0.7-0.4,3.7-1.6,5.3C22.9,15.2,18.7,10.8,20.6,9.5z"/>
		</g>
		<g>
			<path class="st2" d="M19.9,10.4c0-0.5,0.2-0.9,0.6-1.1l0,0c1.7-1.1,4.9-2.2,5.7-1.4c0.8,0.9-0.4,4-1.6,5.7
				c-0.3,0.4-0.9,0.6-1.5,0.5c-1.3-0.3-2.9-2-3.1-3.3C19.9,10.7,19.9,10.5,19.9,10.4z M20.7,9.7c-0.3,0.2-0.4,0.5-0.3,0.9
				c0.2,1.1,1.6,2.6,2.7,2.9c0.4,0.1,0.7,0,0.9-0.3c1.3-1.7,2.1-4.5,1.7-5C25.3,7.8,22.6,8.5,20.7,9.7L20.7,9.7z"/>
		</g>
		<path id="XMLID_1_" class="st3" d="M23.2,19.1c0.9-0.1,1.7,0.3,2.1,0.9c0,0,0.1,0,0.1,0c1-0.1,1.8,0.5,2,1.4
			c0.2,1.2-1,2.1-2.2,1.8c-0.6,1.1-2,1.4-2.7,0.4c-0.9,0.1-2.2,0.1-2.6-1.1c-0.2-0.9,0.6-1.7,1.5-1.8c0,0,0.1,0,0.1,0
			C21.7,19.7,22.3,19.2,23.2,19.1z"/>
		<path id="XMLID_20_" class="st3" d="M10.6,20.5c0,0,0.1,0,0.1,0c1,0.1,1.8,1,1.5,1.8c-0.4,1.3-1.7,1.2-2.6,1.1
			c-0.7,1-2.2,0.7-2.7-0.4c-1.2,0.3-2.4-0.6-2.2-1.8c0.1-0.9,1-1.5,2-1.4c0,0,0.1,0,0.1,0c0.4-0.6,1.2-1,2.1-0.9
			C9.7,19.2,10.3,19.7,10.6,20.5z"/>
		<path class="st2" d="M27.7,21.2c-0.1-1-1.1-1.7-2.2-1.6c-0.5-0.6-1.4-1-2.2-0.9c-0.1,0-0.2,0-0.3,0.1c1.1-1.2,1.8-2.6,1.8-4.1
			c-0.1-3.7-4.1-6.6-8.9-6.6c-2.3,0-4.5,0.8-6.1,2.1c-1.6,1.3-2.5,3-2.5,4.7c0,0,0,0.1,0,0.1c0,1.4,0.6,2.7,1.6,3.8
			c-0.1,0-0.1,0-0.2,0C7.8,18.7,7,19,6.5,19.7c-1.1-0.1-2.1,0.6-2.2,1.6c-0.1,0.6,0.1,1.2,0.6,1.6c0.5,0.4,1.1,0.6,1.7,0.5
			c0.3,0.6,0.9,0.9,1.6,1c0.6,0,1.1-0.2,1.4-0.6c0.7,0.1,2.3,0.1,2.7-1.3c0-0.1,0-0.1,0-0.2c0-0.3,0-0.7-0.3-1
			c-0.1-0.1-0.2-0.2-0.3-0.4c1.3,0.5,2.8,0.8,4.3,0.8c1.5,0,2.9-0.3,4.1-0.9c-0.1,0.1-0.3,0.3-0.4,0.5c-0.2,0.3-0.3,0.7-0.3,1
			c0,0.1,0,0.1,0,0.2c0.4,1.5,2,1.4,2.7,1.3c0.4,0.4,0.9,0.7,1.4,0.6c0.6,0,1.2-0.4,1.6-1c0.6,0.1,1.3-0.1,1.7-0.5
			C27.6,22.5,27.8,21.9,27.7,21.2z M11.8,22.3c-0.3,1-1.3,1.1-2.3,1l-0.2,0l-0.1,0.1c-0.3,0.4-0.6,0.6-1.1,0.5c-0.5,0-1-0.4-1.2-0.9
			l-0.1-0.2l-0.2,0c-0.5,0.1-1.1,0-1.5-0.4c-0.3-0.3-0.5-0.7-0.4-1.1c0,0,0,0,0,0c0.1-0.7,0.8-1.2,1.7-1.1c0,0,0.1,0,0.1,0l0.2,0
			l0.1-0.1c0.4-0.6,1.1-0.9,1.8-0.8c0.7,0.1,1.3,0.6,1.6,1.2l0.1,0.2l0.2,0c0,0,0.1,0,0.1,0c0.5,0.1,0.9,0.3,1.2,0.7
			C11.8,21.6,11.9,21.9,11.8,22.3z M26.8,22.5c-0.4,0.3-0.9,0.5-1.5,0.4l-0.2,0L25,23c-0.2,0.5-0.7,0.8-1.2,0.9
			c-0.4,0-0.8-0.2-1.1-0.5l-0.1-0.1l-0.2,0c-1,0.1-2,0.1-2.3-1c-0.1-0.3,0-0.6,0.1-0.8c0.2-0.4,0.7-0.6,1.2-0.7c0,0,0.1,0,0.1,0
			l0.2,0l0.1-0.2c0.2-0.7,0.8-1.1,1.6-1.2c0.7-0.1,1.5,0.2,1.8,0.8l0.1,0.1l0.2,0c0,0,0.1,0,0.1,0c0.8-0.1,1.6,0.4,1.7,1.1
			c0,0,0,0,0,0C27.3,21.8,27.1,22.2,26.8,22.5z"/>
		<path class="st3" d="M11.2,9.4C9.4,8.3,6.4,7.4,5.8,8.2c-0.6,0.7,0.5,3.7,1.8,5.3C9,15.2,13.1,10.5,11.2,9.4z"/>
		<path class="st3" d="M26.1,7.9c-0.8-0.9-4,0.2-5.7,1.4c-0.1,0.1-0.2,0.1-0.2,0.2c-1.3-0.6-2.7-0.9-4.3-0.8c-2.2,0-4.3,0.7-5.8,1.9
			c-1.5,1.2-2.3,2.8-2.3,4.4c0,1.6,0.9,3.2,2.5,4.3c1.6,1.2,3.7,1.8,5.9,1.7c4.5-0.1,8.1-2.9,8.1-6.3c0,0,0-0.1,0-0.1
			c0-0.3,0-0.5-0.1-0.8c0.1-0.1,0.2-0.2,0.3-0.3C25.7,12,26.9,8.8,26.1,7.9z M13,17.2c-1,0-1.8-1-1.8-2.2c0-1.2,0.8-2.2,1.8-2.2
			c1,0,1.8,1,1.8,2.2C14.8,16.2,14,17.2,13,17.2z M16,19.3c-0.9,0-1.9-1.3,0-1.4C17.9,18,16.9,19.3,16,19.3z M19,17.2
			c-1,0-1.8-1-1.8-2.2c0-1.2,0.8-2.2,1.8-2.2c1,0,1.8,1,1.8,2.2C20.8,16.2,20,17.2,19,17.2z M24.1,13.3c-0.2,0.3-0.5,0.4-0.9,0.3
			c-1.1-0.3-2.5-1.7-2.7-2.9c-0.1-0.4,0-0.7,0.3-0.9c1.8-1.2,4.6-1.9,5-1.4C26.2,8.8,25.4,11.6,24.1,13.3z"/>
		<path class="st4" d="M13,14.6c-0.2,0-0.3,0.5-0.3,1.1c0,0.6,0.1,1.1,0.3,1.1c0.2,0,0.3-0.5,0.3-1.1C13.3,15.1,13.2,14.6,13,14.6z"
			/>
		<path class="st4" d="M19,14.6c-0.2,0-0.3,0.5-0.3,1.1c0,0.6,0.1,1.1,0.3,1.1c0.2,0,0.3-0.5,0.3-1.1C19.3,15.1,19.2,14.6,19,14.6z"
			/>
		<path class="st2" d="M5.4,8.8c0-0.3,0.1-0.6,0.2-0.8c0.8-0.9,4,0.1,5.7,1.2l0,0c0.5,0.3,0.7,0.8,0.6,1.4c-0.2,1.3-1.7,3.1-3,3.4
			c-0.6,0.2-1.1,0-1.5-0.4C6.4,12.3,5.4,10.1,5.4,8.8z M11.1,9.6C9.2,8.4,6.4,7.8,6,8.3c-0.4,0.5,0.5,3.2,1.8,4.9
			c0.2,0.3,0.5,0.4,1,0.2c1.1-0.3,2.5-1.8,2.6-3C11.5,10.1,11.4,9.8,11.1,9.6L11.1,9.6z"/>
		<g>
			<g id="XMLID_50_">
				<path id="XMLID_77_" class="st4" d="M10.2,18c-3-0.5-6-0.2-8.7,1.4C3.4,16.8,7.5,16.4,10.2,18z"/>
				<path id="XMLID_76_" class="st4" d="M10.1,17.4c-2.6-1.1-5-1.3-7.7-0.6C4.5,14.9,8.2,15.3,10.1,17.4z"/>
				<path id="XMLID_51_" class="st4" d="M10.6,18.7c-2.8,0.3-5.1,1-7.2,3.1C3.7,19.3,8,17.8,10.6,18.7z"/>
			</g>
			<g id="XMLID_49_">
				<path id="XMLID_96_" class="st4" d="M21.8,18c3-0.5,6-0.2,8.7,1.4C28.6,16.8,24.5,16.4,21.8,18z"/>
				<path id="XMLID_95_" class="st4" d="M21.9,17.4c2.6-1.1,5-1.3,7.7-0.6C27.5,14.9,23.8,15.3,21.9,17.4z"/>
				<path id="XMLID_94_" class="st4" d="M21.4,18.7c2.8,0.3,5.1,1,7.2,3.1C28.3,19.3,24,17.8,21.4,18.7z"/>
			</g>
		</g>
	</g>
</g>
</svg>
