<?xml version="1.0" encoding="utf-8"?>
<!-- Generator: Adobe Illustrator 26.0.1, SVG Export Plug-In . SVG Version: 6.00 Build 0)  -->
<svg version="1.1" id="Layer_1" xmlns="http://www.w3.org/2000/svg" xmlns:xlink="http://www.w3.org/1999/xlink" x="0px" y="0px"
	 viewBox="0 0 727 252.4" style="enable-background:new 0 0 727 252.4;" xml:space="preserve">
<style type="text/css">
	.st0{fill:#5972D8;}
	.st1{fill:#30235A;}
	.st2{fill:#F9D762;}
	.st3{fill:#ED2635;}
	.st4{fill:#FF6B35;}
	.st5{fill:#BCD650;}
</style>
<ellipse transform="matrix(0.9725 -0.2331 0.2331 0.9725 -1.0324 63.522)" class="st0" cx="268.2" cy="36.1" rx="45.2" ry="33.2"/>
<path class="st1" d="M262,72.2c-6.9,0.1-13.8-1.3-20.2-3.9c-10.4-4.4-17.4-11.9-19.6-21.2s0.5-19.2,7.8-27.8
	c7.2-8.4,17.8-14.7,30-17.6s24.5-2.2,34.7,2.1c10.4,4.4,17.4,11.9,19.6,21.2s-0.6,19.2-7.9,27.8c-7.1,8.5-17.8,14.7-29.9,17.6
	C271.7,71.7,266.9,72.2,262,72.2z M274.5,4.2c-4.6,0-9.1,0.6-13.5,1.7c-11.3,2.7-21.1,8.5-27.7,16.2c-6.4,7.6-8.9,16.1-7,24
	s8,14.4,17.1,18.3c9.4,3.9,20.8,4.6,32,1.9s21.1-8.5,27.7-16.2c6.4-7.6,8.9-16.1,7-24s-8-14.4-17.1-18.3
	C287.1,5.4,280.8,4.2,274.5,4.2L274.5,4.2z"/>
<path class="st2" d="M231,244.1l7-161c0.1-2.4,2.1-4.3,4.5-4.2l49.6,1.6c2.4,0.1,4.3,2.1,4.2,4.5c0,0,0,0,0,0l-7,161
	c-0.1,2.4-2.1,4.3-4.5,4.2l-49.6-1.6C232.8,248.6,230.9,246.6,231,244.1C231,244.1,231,244.1,231,244.1z"/>
<path class="st1" d="M284.9,252.4h-0.2l-49.6-1.6c-3.6-0.1-6.4-3.2-6.3-6.8c0,0,0,0,0,0l7-161c0.2-3.6,3.1-6.3,6.7-6.2l49.6,1.6
	c3.6,0.1,6.4,3.1,6.3,6.7c0,0,0,0,0,0.1l-7,161C291.3,249.7,288.4,252.4,284.9,252.4z M233.1,244.2c0,0.6,0.2,1.2,0.6,1.6
	c0.4,0.4,1,0.7,1.6,0.7l49.6,1.6c1.2,0,2.2-0.9,2.3-2.1l7-161c0.1-1.2-0.9-2.3-2.1-2.3c0,0-0.1,0-0.1,0l-49.6-1.6
	c-1.2,0-2.2,0.9-2.3,2.1L233.1,244.2z"/>
<path class="st3" d="M425.4,250.1c-16.9,1-33.8-1.6-49.6-7.5c-15.2-5.5-28.2-13.2-38.8-23c-1.7-1.6-1.9-4.2-0.4-6l32.2-40.2
	c1.5-1.9,4.3-2.2,6.2-0.6c0.1,0,0.1,0.1,0.2,0.1c6,5.3,12.9,9.4,20.3,12.3c8.4,3.5,17.6,5,26.7,4.5c7.8-0.5,14.2-2.3,19.1-5.6
	s7.2-7,7-11.1c-0.5-7.6-9.3-10.9-26.6-9.8c-14.1,1.1-28.3-1.2-41.4-6.7c-18.5-7.8-32.4-21-41.5-39.5c-0.1-0.3-0.3-0.6-0.4-0.9
	c-6.4-21.5-4.6-40.7,5.6-57.7c7-11.7,17-21.3,30-28.8c13.1-7.3,27.7-11.5,42.6-12.4c15.9-1,31.8,1.1,46.8,6.2
	c14,4.6,27,11.8,38.4,21.2c1.7,1.4,2.1,3.9,0.9,5.8L476,91.7c-1.3,2-4,2.6-6,1.3c-18.3-11-35.3-16-51.1-15c-7.4,0.5-13.7,2.2-19,5.1
	c-5.3,2.9-7.7,6.2-7.5,9.9c0.3,3.8,3.6,6.4,10.1,7.8c6.1,1.6,13.8,2.1,23,1.6c16.2-1,30.7,0.6,43.6,4.9c12.8,4.3,23.2,11,31,20.2
	c7.8,9.3,12.2,21,13.1,35c1,14.7-2.5,29.3-10,41.9c-7.7,13.3-18.9,24.3-32.3,31.9C457.1,244.5,441.5,249.2,425.4,250.1z"/>
<path class="st1" d="M418.2,252.4c-14.8-0.1-29.4-2.8-43.2-7.9c-15.5-5.6-28.8-13.5-39.5-23.5c-2.5-2.3-2.8-6.2-0.6-8.9l32.3-40.2
	c1.1-1.4,2.7-2.2,4.4-2.4c1.8-0.1,3.6,0.4,5,1.6c5.8,5.1,12.5,9.2,19.7,12c8.2,3.3,16.9,4.8,25.7,4.3c7.4-0.5,13.5-2.2,18.1-5.2
	c4.3-2.8,6.2-5.8,6-9.2c-0.1-1.9-0.8-4.5-5.6-6.3c-4.1-1.5-10.4-2-18.7-1.5c-14.5,1.1-29-1.3-42.4-6.9c-18.9-8-33.2-21.6-42.5-40.5
	c-0.2-0.4-0.4-0.8-0.5-1.3c-6.6-22-4.6-41.9,5.8-59.4c7.2-12,17.5-21.9,30.8-29.5c13.4-7.4,28.3-11.8,43.6-12.6
	c16.1-1,32.3,1.1,47.6,6.3c14.2,4.7,27.4,12.1,39,21.6c2.6,2.1,3.1,5.8,1.3,8.6l-26.5,41.3c-1.9,3-5.9,3.9-8.9,2
	c-17.8-10.8-34.6-15.7-49.9-14.7c-6.3,0.2-12.5,1.9-18.1,4.8c-4.4,2.5-6.6,5.1-6.4,7.8s3,4.7,8.5,5.8h0.1c5.9,1.6,13.4,2,22.3,1.5
	c16.4-1,31.4,0.6,44.4,5s23.9,11.4,32,20.8c8.1,9.7,12.7,21.9,13.6,36.3c1,15.1-2.6,30.1-10.3,43.2c-8,13.6-19.4,24.9-33.1,32.7
	c-14.1,8.3-30.1,13.2-46.5,14.1l0,0C423.1,252.4,420.7,252.4,418.2,252.4z M372.1,173.9h-0.2c-0.6,0-1.1,0.3-1.5,0.8l-32.2,40.2
	c-0.7,0.9-0.7,2.2,0.2,3.1c10.4,9.6,23.2,17.2,38.1,22.6c15.6,5.8,32.2,8.4,48.8,7.5l0,0c15.7-0.8,31-5.5,44.6-13.5
	c13.1-7.4,24-18.2,31.6-31.1c7.3-12.3,10.6-26.5,9.7-40.8c-0.9-13.5-5.1-24.9-12.6-33.8c-7.5-8.8-17.6-15.4-30-19.5
	s-26.9-5.8-42.8-4.8c-9.4,0.6-17.3,0.1-23.6-1.6c-7.5-1.6-11.5-4.9-11.8-9.7c-0.3-4.5,2.6-8.4,8.6-11.8c6.1-3.3,12.9-5.1,19.9-5.4
	c16.1-1,33.8,4.1,52.4,15.3c1,0.7,2.4,0.4,3.1-0.6l26.6-41.3c0.6-1,0.4-2.2-0.4-3c-11.2-9.2-23.9-16.3-37.7-20.8
	c-14.8-5-30.4-7.1-46-6.1c-14.6,0.8-28.9,5-41.7,12.1c-12.6,7.2-22.4,16.6-29.2,28c-9.8,16.4-11.6,35.2-5.4,56
	c0.1,0.2,0.1,0.4,0.2,0.6c8.9,18,22.4,30.9,40.4,38.5c12.8,5.3,26.6,7.5,40.4,6.4c9-0.6,15.7,0,20.4,1.7c6.6,2.4,8.2,6.8,8.4,10
	c0.3,5-2.4,9.4-7.9,13.1c-5.2,3.4-12,5.4-20.1,5.9c-9.4,0.5-18.8-1.1-27.6-4.6c-7.7-3-14.7-7.3-20.9-12.7
	C373.3,174,372.7,173.8,372.1,173.9z"/>
<path class="st4" d="M583.8,237.1c-15.1-9.9-27.1-24.7-36.1-44.2s-14.3-42.6-15.9-69.3c-2.3-37.3,0.4-70.9,8.3-100.6
	c0.6-2.3,2.9-3.6,5.2-3.1l56.6,12.3c2.3,0.5,3.8,2.7,3.3,5c-2.5,13.7-4.5,28.3-6,43.8c-1.6,17.1-2.2,29.9-1.7,38.6
	c3,48.3,14.4,71.8,34.2,70.5c20.2-1.3,28.8-26.4,25.8-75.5c0-0.2,0-0.3-0.1-0.5l-1.4-8.4c-2.5-17.9-4.8-32.3-6.8-43
	c-1.7-9.1-3.5-17.6-5.5-25.5c-0.6-2.2,0.7-4.5,2.9-5.2l55.6-17.2c2.3-0.7,4.7,0.5,5.5,2.8c9,27.4,14.5,57,16.5,88.9
	c1.8,28-0.6,52.7-7.2,74s-16.7,38-30.7,49.9c-13.9,11.9-30.9,18.5-50.9,19.8C616.2,251.3,598.9,247,583.8,237.1z"/>
<path class="st1" d="M629.4,252.4c-17.3,0-33-4.6-46.7-13.6l0,0c-15.4-10.1-27.8-25.3-36.8-45.1s-14.5-43.3-16.1-70
	c-2.3-37.4,0.5-71.5,8.4-101.3c0.9-3.4,4.3-5.4,7.7-4.7l56.6,12.3c3.4,0.7,5.7,4,5,7.5c-2.5,13.6-4.5,28.3-6,43.6
	c-1.6,16.9-2.2,29.7-1.7,38.2c2.8,45.5,13.2,68.6,30.7,68.6c0.4,0,0.8,0,1.3,0c18.7-1.2,26.7-25.8,23.8-73.3v-0.3L654,106
	c-2.5-17.8-4.8-32.3-6.8-43c-1.7-9.1-3.5-17.6-5.4-25.3c-0.9-3.3,1.1-6.7,4.3-7.8l55.6-17.2c3.4-1,7,0.8,8.1,4.2
	c9,27.5,14.6,57.5,16.6,89.4c1.8,28.1-0.7,53.3-7.2,74.8s-17.1,38.7-31.3,50.9s-31.8,19-52.2,20.3
	C633.6,252.4,631.5,252.4,629.4,252.4z M585,235.3c14.6,9.6,31.6,13.9,50.5,12.7c19.5-1.2,36.2-7.7,49.7-19.2s23.7-28,30-48.9
	c6.4-21,8.8-45.6,7.1-73.3c-2-31.5-7.5-61.2-16.4-88.3c-0.4-1.2-1.6-1.8-2.8-1.5L647.4,34c-1.1,0.4-1.7,1.5-1.4,2.6
	c2,7.8,3.8,16.4,5.5,25.6c2,10.8,4.2,25.3,6.8,43.1l1.4,8.3c0,0.2,0.1,0.5,0.1,0.7c1.5,24.7,0.1,43.7-4.3,56.5
	c-4.6,13.4-12.5,20.6-23.5,21.3c-10.8,0.7-19.4-5.4-25.5-17.9c-5.8-12-9.5-30.3-11-54.6c-0.5-8.7,0-21.8,1.7-38.9
	c1.5-15.5,3.5-30.3,6-44c0.2-1.2-0.5-2.3-1.7-2.5L544.9,22c-1.2-0.3-2.4,0.4-2.7,1.6c-7.8,29.3-10.6,63-8.3,99.9
	c1.6,26.2,6.9,49.3,15.7,68.5S570.3,225.7,585,235.3L585,235.3z"/>
<path class="st5" d="M156.1,245.7l-81.8-95.1c-2.4-3.2-7.4-2.1-7.3,2.4c0.6,21.8,2.8,84.8,2.8,84.8c0.1,2.4-1.8,4.4-4.2,4.5
	c0,0,0,0,0,0l-51.1,1.9c-2.4,0.1-4.4-1.8-4.5-4.2l-7.9-218c-0.1-2.4,1.8-4.4,4.2-4.5c0,0,0,0,0,0l51.1-1.8c2.4-0.1,4.4,1.8,4.5,4.2
	c0,0,0,0,0,0l2,55.5c0.1,2.4,2.1,4.3,4.5,4.2c1.2,0,2.3-0.5,3-1.4l63.9-67.9c1.6-1.7,4.2-1.8,6-0.3l42.8,36.5
	c1.8,1.6,2.1,4.3,0.5,6.2c0,0-0.1,0.1-0.1,0.1l-54.2,58.8c-1.5,1.7-1.5,4.2,0,5.9l74.2,82.6c1.6,1.8,1.5,4.5-0.2,6.1L162.4,246
	c-1.8,1.7-4.5,1.6-6.2-0.2C156.2,245.8,156.1,245.7,156.1,245.7z"/>
<path class="st1" d="M159.4,249.3h-0.3c-1.8-0.1-3.4-0.9-4.6-2.2l0,0l-81.9-95.2c-0.5-0.8-1.5-1.1-2.4-0.9c-0.7,0.3-1.1,1.1-1,1.9
	c0.6,21.5,2.8,84.1,2.8,84.8c0.1,3.6-2.7,6.6-6.3,6.7l-51.1,1.8c-3.6,0.1-6.6-2.6-6.7-6.2c0,0,0,0,0,0L0,22
	c-0.1-3.6,2.7-6.6,6.3-6.7l51.1-1.9c3.6-0.1,6.6,2.7,6.7,6.3l2,55.5c0.1,1.2,1.1,2.2,2.4,2.1c0.6,0,1.1-0.3,1.5-0.7l63.9-67.9
	c2.4-2.5,6.4-2.8,9-0.5l42.8,36.5c2.7,2.3,3.1,6.4,0.7,9.2c-0.1,0.1-0.1,0.1-0.2,0.2L132,113c-0.8,0.9-0.8,2.1,0,3l74.2,82.5
	c2.4,2.6,2.2,6.6-0.4,9.1l-41.9,39.9C162.7,248.7,161.1,249.3,159.4,249.3z M157.7,244.3c0.4,0.5,1,0.7,1.6,0.8
	c0.6,0,1.2-0.2,1.6-0.6l41.9-39.9c0.9-0.8,0.9-2.2,0.1-3.1l-74.2-82.6c-2.3-2.5-2.2-6.3,0.1-8.8l54.2-58.8c0.4-0.4,0.6-1,0.6-1.7
	c0-0.6-0.3-1.2-0.8-1.6l-42.8-36.6c-0.9-0.8-2.3-0.7-3.1,0.2L73.1,79.6c-2.5,2.6-6.6,2.7-9.2,0.3c-1.3-1.2-2-2.8-2-4.5l-2-55.5
	c0-1.2-1.1-2.2-2.3-2.2c0,0,0,0,0,0L6.4,19.5c-0.6,0-1.2,0.3-1.6,0.7c-0.4,0.4-0.6,1-0.6,1.6l7.9,218c0,1.2,1.1,2.2,2.3,2.2
	c0,0,0,0,0,0l51.1-1.8c1.2,0,2.2-1.1,2.2-2.3c0,0,0,0,0,0c0-0.6-2.2-63.3-2.8-84.8c-0.2-2.7,1.4-5.1,3.9-6c2.6-0.9,5.6,0,7.2,2.2
	L157.7,244.3z"/>
</svg>
